<svg width="1311" height="1500" viewBox="0 0 1311 1500" fill="none" xmlns="http://www.w3.org/2000/svg">
<path d="M627.392 49.4749L410.355 360.128L426.783 371.605L643.82 60.9521L627.392 49.4749Z" fill="#001B62"/>
<path d="M664.142 48.3793L649.348 61.8975L949.662 390.553L964.456 377.035L664.142 48.3793Z" fill="#001B62"/>
<path d="M690.305 46.2001C690.305 55.3427 687.593 64.2798 682.511 71.8799C677.429 79.4801 670.207 85.4015 661.758 88.8947C653.309 92.388 644.013 93.2958 635.048 91.5034C626.083 89.7111 617.851 85.299 611.395 78.8258C604.938 72.3526 600.548 64.1093 598.779 55.1395C597.01 46.1697 597.942 36.8767 601.457 28.4369C604.972 19.9971 610.912 12.7899 618.526 7.72785C626.139 2.66578 635.083 -0.0235911 644.226 0.000155916C650.287 0.000135362 656.289 1.19598 661.887 3.51921C667.486 5.84245 672.571 9.24742 676.851 13.5391C681.132 17.8307 684.524 22.9247 686.832 28.5293C689.141 34.1338 690.321 40.1387 690.305 46.2001Z" fill="#001B62"/>
<path d="M644.225 20.7602C649.309 20.6409 654.314 22.041 658.598 24.7813C662.882 27.5217 666.251 31.4779 668.275 36.1436C670.298 40.8094 670.884 45.9728 669.957 50.9732C669.029 55.9736 666.632 60.5837 663.07 64.2139C659.508 67.8441 654.945 70.3292 649.963 71.3515C644.981 72.3737 639.807 71.8866 635.104 69.9524C630.4 68.0182 626.381 64.7249 623.559 60.4937C620.738 56.2625 619.243 51.2858 619.265 46.2002C619.264 39.5354 621.878 33.1364 626.546 28.379C631.213 23.6216 637.562 20.886 644.225 20.7602Z" fill="#FABD00"/>
<path d="M179.225 1320C136.534 1320.23 95.4712 1303.63 64.9265 1273.81C34.3818 1243.98 16.8135 1203.32 16.0252 1160.64L0.0652739 527.76C-0.541824 506.285 3.0909 484.901 10.7557 464.831C18.4205 444.761 29.967 426.399 44.7346 410.795C59.5022 395.192 77.2012 382.653 96.8192 373.896C116.437 365.139 137.589 360.335 159.065 359.76L1127.23 335.76C1148.68 335.105 1170.05 338.71 1190.1 346.366C1210.15 354.022 1228.48 365.577 1244.03 380.363C1259.59 395.149 1272.06 412.873 1280.72 432.508C1289.39 452.144 1294.07 473.303 1294.51 494.76L1310.47 1127.76C1311.5 1171.08 1295.29 1213.04 1265.42 1244.43C1235.54 1275.81 1194.42 1294.06 1151.11 1295.16L183.305 1320H179.225ZM1131.31 356.04H1127.71L159.665 380.04C140.847 380.538 122.312 384.739 105.118 392.403C87.9247 400.067 72.4098 411.044 59.4602 424.706C46.5107 438.369 36.3804 454.45 29.6483 472.029C22.9162 489.609 19.7142 508.343 20.2253 527.16L36.0653 1160.04C37.2145 1197.31 52.7771 1232.68 79.4782 1258.71C106.179 1284.74 141.937 1299.4 179.225 1299.6H182.705L1150.87 1275C1169.67 1274.56 1188.21 1270.42 1205.41 1262.8C1222.6 1255.18 1238.13 1244.24 1251.08 1230.6C1264.04 1216.96 1274.18 1200.9 1280.91 1183.33C1287.64 1165.77 1290.83 1147.04 1290.31 1128.24L1274.47 495.24C1273.62 457.902 1258.14 422.391 1231.36 396.355C1204.58 370.319 1168.65 355.842 1131.31 356.04Z" fill="#001B62"/>
<path d="M1063.87 332.4L147.306 434.76C108.993 439.187 74.0001 458.626 49.9981 488.814C25.9961 519.002 14.9442 557.476 19.2655 595.8L86.1055 1194.96C88.2244 1214 94.0761 1232.43 103.326 1249.2C112.575 1265.97 125.041 1280.75 140.01 1292.7C154.979 1304.65 172.157 1313.53 190.561 1318.83C208.965 1324.13 228.234 1325.75 247.266 1323.6L1163.83 1221.24C1182.86 1219.14 1201.28 1213.3 1218.05 1204.06C1234.82 1194.82 1249.61 1182.37 1261.56 1167.41C1273.51 1152.45 1282.39 1135.28 1287.69 1116.88C1293 1098.49 1294.62 1079.22 1292.47 1060.2L1225.63 461.04C1223.51 441.948 1217.64 423.463 1208.35 406.649C1199.06 389.835 1186.54 375.024 1171.51 363.068C1156.47 351.112 1139.22 342.247 1120.75 336.984C1102.28 331.721 1082.94 330.163 1063.87 332.4Z" fill="#FABD00"/>
<path d="M319.265 1182.96C302.56 1185.33 285.533 1183.89 269.466 1178.74C253.4 1173.58 238.711 1164.85 226.505 1153.2C199.592 1126.97 183.347 1091.7 180.905 1054.2C174.52 1015.33 182.45 975.466 203.225 942C212.802 927.254 225.661 914.923 240.795 905.971C255.929 897.02 272.929 891.691 290.465 890.4C307.012 888.071 323.872 889.529 339.774 894.663C355.676 899.797 370.204 908.474 382.265 920.04C408.947 947.151 424.929 982.994 427.265 1020.96C433.461 1059.55 425.445 1099.07 404.705 1132.2C395.239 1146.58 382.629 1158.62 367.828 1167.42C353.027 1176.21 336.421 1181.52 319.265 1182.96ZM295.265 945.24C285.83 946.047 276.759 949.262 268.922 954.577C261.085 959.893 254.743 967.132 250.505 975.6C240.105 996.794 236.541 1020.69 240.305 1044C241.613 1067.61 250.349 1090.21 265.265 1108.56C271.304 1115.47 278.917 1120.82 287.462 1124.16C296.007 1127.51 305.232 1128.74 314.355 1127.76C323.479 1126.79 332.232 1123.63 339.876 1118.55C347.519 1113.47 353.827 1106.63 358.265 1098.6C368.549 1077.58 371.99 1053.87 368.105 1030.8C366.861 1006.72 358.51 983.541 344.105 964.2C338.28 957.11 330.725 951.64 322.17 948.319C313.615 944.998 304.349 943.938 295.265 945.24Z" fill="white"/>
<path d="M591.065 914.16L502.025 924L509.705 993.36L591.665 984.24L597.305 1035.96L515.465 1044.84L527.465 1154.76L470.465 1161L439.265 878.4L585.425 862.2L591.065 914.16Z" fill="white"/>
<path d="M764.105 894.6L675.065 904.56L682.865 973.8L764.705 964.8L770.465 1016.4L688.505 1025.4L700.505 1135.2L643.505 1141.44L611.945 858.84L758.105 842.64L764.105 894.6Z" fill="white"/>
<path d="M968.705 1105.44L817.265 1122L785.705 839.28L931.265 823.44L937.025 875.4L848.225 885.24L855.185 948L937.625 938.76L943.265 990L860.825 999.24L868.025 1063.68L962.465 1053.24L968.705 1105.44Z" fill="white"/>
<path d="M1207.27 1078.8L1141.87 1086L1094.47 1017.6C1090.87 1012.56 1087.63 1007.76 1084.27 1003.8C1081.41 1000.16 1078.29 996.752 1074.91 993.6C1072.23 991.04 1069.09 989.005 1065.67 987.6C1062.53 986.398 1059.18 985.866 1055.83 986.04L1040.47 987.96L1052.47 1095.96L995.465 1102.2L964.025 819.6L1054.27 809.4C1115.47 802.52 1148.99 824.72 1154.83 876C1155.97 885.193 1155.65 894.51 1153.87 903.6C1152.2 912.039 1149.16 920.147 1144.87 927.6C1140.63 934.832 1135.24 941.318 1128.91 946.8C1122.26 952.584 1114.78 957.319 1106.71 960.84V961.8C1110.97 962.76 1115.03 964.466 1118.71 966.84C1122.74 969.625 1126.55 972.714 1130.11 976.08C1133.71 979.68 1137.31 983.64 1140.91 988.08C1144.51 992.52 1147.51 996.48 1150.51 1000.08L1207.27 1078.8ZM1026.07 861.24L1034.83 939.96L1058.83 937.2C1064.33 936.819 1069.7 935.287 1074.58 932.703C1079.45 930.119 1083.74 926.541 1087.15 922.2C1090.41 917.804 1092.77 912.804 1094.09 907.49C1095.41 902.175 1095.66 896.652 1094.83 891.24C1092.19 867.24 1077.43 855.24 1051.15 858.6L1026.07 861.24Z" fill="white"/>
<path d="M319.265 1182.96C302.56 1185.33 285.533 1183.89 269.466 1178.74C253.4 1173.58 238.711 1164.85 226.505 1153.2C199.592 1126.97 183.347 1091.7 180.905 1054.2C174.52 1015.33 182.45 975.466 203.225 942C212.802 927.254 225.661 914.923 240.795 905.971C255.929 897.02 272.929 891.691 290.465 890.4C307.012 888.071 323.872 889.529 339.774 894.663C355.676 899.797 370.204 908.474 382.265 920.04C408.947 947.151 424.929 982.994 427.265 1020.96C433.461 1059.55 425.445 1099.07 404.705 1132.2C395.239 1146.58 382.629 1158.62 367.828 1167.42C353.027 1176.21 336.421 1181.52 319.265 1182.96ZM295.265 945.24C285.83 946.047 276.759 949.262 268.922 954.577C261.085 959.893 254.743 967.132 250.505 975.6C240.105 996.794 236.541 1020.69 240.305 1044C241.613 1067.61 250.349 1090.21 265.265 1108.56C271.304 1115.47 278.917 1120.82 287.462 1124.16C296.007 1127.51 305.232 1128.74 314.355 1127.76C323.479 1126.79 332.232 1123.63 339.876 1118.55C347.519 1113.47 353.827 1106.63 358.265 1098.6C368.549 1077.58 371.99 1053.87 368.105 1030.8C366.861 1006.72 358.51 983.541 344.105 964.2C338.28 957.11 330.725 951.64 322.17 948.319C313.615 944.998 304.349 943.938 295.265 945.24Z" fill="#001B62"/>
<path d="M591.065 914.16L502.025 924L509.705 993.36L591.665 984.24L597.305 1035.96L515.465 1044.84L527.465 1154.76L470.465 1161L439.265 878.4L585.425 862.2L591.065 914.16Z" fill="#001B62"/>
<path d="M764.105 894.6L675.065 904.56L682.865 973.8L764.705 964.8L770.465 1016.4L688.505 1025.4L700.505 1135.2L643.505 1141.44L611.945 858.84L758.105 842.64L764.105 894.6Z" fill="#001B62"/>
<path d="M968.705 1105.44L817.265 1122L785.705 839.28L931.265 823.44L937.025 875.4L848.225 885.24L855.185 948L937.625 938.76L943.265 990L860.825 999.24L868.025 1063.68L962.465 1053.24L968.705 1105.44Z" fill="#001B62"/>
<path d="M1207.27 1078.8L1141.87 1086L1094.47 1017.6C1090.87 1012.56 1087.63 1007.76 1084.27 1003.8C1081.41 1000.16 1078.29 996.752 1074.91 993.6C1072.23 991.04 1069.09 989.005 1065.67 987.6C1062.53 986.398 1059.18 985.866 1055.83 986.04L1040.47 987.96L1052.47 1095.96L995.465 1102.2L964.025 819.6L1054.27 809.4C1115.47 802.52 1148.99 824.72 1154.83 876C1155.97 885.193 1155.65 894.51 1153.87 903.6C1152.2 912.039 1149.16 920.147 1144.87 927.6C1140.63 934.832 1135.24 941.318 1128.91 946.8C1122.26 952.584 1114.78 957.319 1106.71 960.84V961.8C1110.97 962.76 1115.03 964.466 1118.71 966.84C1122.74 969.625 1126.55 972.714 1130.11 976.08C1133.71 979.68 1137.31 983.64 1140.91 988.08C1144.51 992.52 1147.51 996.48 1150.51 1000.08L1207.27 1078.8ZM1026.07 861.24L1034.83 939.96L1058.83 937.2C1064.33 936.819 1069.7 935.287 1074.58 932.703C1079.45 930.119 1083.74 926.541 1087.15 922.2C1090.41 917.804 1092.77 912.804 1094.09 907.49C1095.41 902.175 1095.66 896.652 1094.83 891.24C1092.19 867.24 1077.43 855.24 1051.15 858.6L1026.07 861.24Z" fill="#001B62"/>
<path d="M319.265 1182.96C302.56 1185.33 285.533 1183.89 269.466 1178.74C253.4 1173.58 238.711 1164.85 226.505 1153.2C199.592 1126.97 183.347 1091.7 180.905 1054.2C174.52 1015.33 182.45 975.466 203.225 942C212.802 927.254 225.661 914.923 240.795 905.971C255.929 897.02 272.929 891.691 290.465 890.4C307.012 888.071 323.872 889.529 339.774 894.663C355.676 899.797 370.204 908.474 382.265 920.04C408.947 947.151 424.929 982.994 427.265 1020.96C433.461 1059.55 425.445 1099.07 404.705 1132.2C395.239 1146.58 382.629 1158.62 367.828 1167.42C353.027 1176.21 336.421 1181.52 319.265 1182.96ZM295.265 945.24C285.83 946.047 276.759 949.262 268.922 954.577C261.085 959.893 254.743 967.132 250.505 975.6C240.105 996.794 236.541 1020.69 240.305 1044C241.613 1067.61 250.349 1090.21 265.265 1108.56C271.304 1115.47 278.917 1120.82 287.462 1124.16C296.007 1127.51 305.232 1128.74 314.355 1127.76C323.479 1126.79 332.232 1123.63 339.876 1118.55C347.519 1113.47 353.827 1106.63 358.265 1098.6C368.549 1077.58 371.99 1053.87 368.105 1030.8C366.861 1006.72 358.51 983.541 344.105 964.2C338.28 957.11 330.725 951.64 322.17 948.319C313.615 944.998 304.349 943.938 295.265 945.24Z" fill="#001B62"/>
<path d="M591.065 914.16L502.025 924L509.705 993.36L591.665 984.24L597.305 1035.96L515.465 1044.84L527.465 1154.76L470.465 1161L439.265 878.4L585.425 862.2L591.065 914.16Z" fill="#001B62"/>
<path d="M764.105 894.6L675.065 904.56L682.865 973.8L764.705 964.8L770.465 1016.4L688.505 1025.4L700.505 1135.2L643.505 1141.44L611.945 858.84L758.105 842.64L764.105 894.6Z" fill="#001B62"/>
<path d="M968.705 1105.44L817.265 1122L785.705 839.28L931.265 823.44L937.025 875.4L848.225 885.24L855.185 948L937.625 938.76L943.265 990L860.825 999.24L868.025 1063.68L962.465 1053.24L968.705 1105.44Z" fill="#001B62"/>
<path d="M1207.27 1078.8L1141.87 1086L1094.47 1017.6C1090.87 1012.56 1087.63 1007.76 1084.27 1003.8C1081.41 1000.16 1078.29 996.752 1074.91 993.6C1072.23 991.04 1069.09 989.005 1065.67 987.6C1062.53 986.398 1059.18 985.866 1055.83 986.04L1040.47 987.96L1052.47 1095.96L995.465 1102.2L964.025 819.6L1054.27 809.4C1115.47 802.52 1148.99 824.72 1154.83 876C1155.97 885.193 1155.65 894.51 1153.87 903.6C1152.2 912.039 1149.16 920.147 1144.87 927.6C1140.63 934.832 1135.24 941.318 1128.91 946.8C1122.26 952.584 1114.78 957.319 1106.71 960.84V961.8C1110.97 962.76 1115.03 964.466 1118.71 966.84C1122.74 969.625 1126.55 972.714 1130.11 976.08C1133.71 979.68 1137.31 983.64 1140.91 988.08C1144.51 992.52 1147.51 996.48 1150.51 1000.08L1207.27 1078.8ZM1026.07 861.24L1034.83 939.96L1058.83 937.2C1064.33 936.819 1069.7 935.287 1074.58 932.703C1079.45 930.119 1083.74 926.541 1087.15 922.2C1090.41 917.804 1092.77 912.804 1094.09 907.49C1095.41 902.175 1095.66 896.652 1094.83 891.24C1092.19 867.24 1077.43 855.24 1051.15 858.6L1026.07 861.24Z" fill="#001B62"/>
<path d="M319.265 1182.96C302.56 1185.33 285.533 1183.89 269.466 1178.74C253.4 1173.58 238.711 1164.85 226.505 1153.2C199.592 1126.97 183.347 1091.7 180.905 1054.2C174.52 1015.33 182.45 975.466 203.225 942C212.802 927.254 225.661 914.923 240.795 905.971C255.929 897.02 272.929 891.691 290.465 890.4C307.012 888.071 323.872 889.529 339.774 894.663C355.676 899.797 370.204 908.474 382.265 920.04C408.947 947.151 424.929 982.994 427.265 1020.96C433.461 1059.55 425.445 1099.07 404.705 1132.2C395.239 1146.58 382.629 1158.62 367.828 1167.42C353.027 1176.21 336.421 1181.52 319.265 1182.96ZM295.265 945.24C285.83 946.047 276.759 949.262 268.922 954.577C261.085 959.893 254.743 967.132 250.505 975.6C240.105 996.794 236.541 1020.69 240.305 1044C241.613 1067.61 250.349 1090.21 265.265 1108.56C271.304 1115.47 278.917 1120.82 287.462 1124.16C296.007 1127.51 305.232 1128.74 314.355 1127.76C323.479 1126.79 332.232 1123.63 339.876 1118.55C347.519 1113.47 353.827 1106.63 358.265 1098.6C368.549 1077.58 371.99 1053.87 368.105 1030.8C366.861 1006.72 358.51 983.541 344.105 964.2C338.28 957.11 330.725 951.64 322.17 948.319C313.615 944.998 304.349 943.938 295.265 945.24Z" fill="#001B62"/>
<path d="M591.065 914.16L502.025 924L509.705 993.36L591.665 984.24L597.305 1035.96L515.465 1044.84L527.465 1154.76L470.465 1161L439.265 878.4L585.425 862.2L591.065 914.16Z" fill="#001B62"/>
<path d="M764.105 894.6L675.065 904.56L682.865 973.8L764.705 964.8L770.465 1016.4L688.505 1025.4L700.505 1135.2L643.505 1141.44L611.945 858.84L758.105 842.64L764.105 894.6Z" fill="#001B62"/>
<path d="M968.705 1105.44L817.265 1122L785.705 839.28L931.265 823.44L937.025 875.4L848.225 885.24L855.185 948L937.625 938.76L943.265 990L860.825 999.24L868.025 1063.68L962.465 1053.24L968.705 1105.44Z" fill="#001B62"/>
<path d="M1207.27 1078.8L1141.87 1086L1094.47 1017.6C1090.87 1012.56 1087.63 1007.76 1084.27 1003.8C1081.41 1000.16 1078.29 996.752 1074.91 993.6C1072.23 991.04 1069.09 989.005 1065.67 987.6C1062.53 986.398 1059.18 985.866 1055.83 986.04L1040.47 987.96L1052.47 1095.96L995.465 1102.2L964.025 819.6L1054.27 809.4C1115.47 802.52 1148.99 824.72 1154.83 876C1155.97 885.193 1155.65 894.51 1153.87 903.6C1152.2 912.039 1149.16 920.147 1144.87 927.6C1140.63 934.832 1135.24 941.318 1128.91 946.8C1122.26 952.584 1114.78 957.319 1106.71 960.84V961.8C1110.97 962.76 1115.03 964.466 1118.71 966.84C1122.74 969.625 1126.55 972.714 1130.11 976.08C1133.71 979.68 1137.31 983.64 1140.91 988.08C1144.51 992.52 1147.51 996.48 1150.51 1000.08L1207.27 1078.8ZM1026.07 861.24L1034.83 939.96L1058.83 937.2C1064.33 936.819 1069.7 935.287 1074.58 932.703C1079.45 930.119 1083.74 926.541 1087.15 922.2C1090.41 917.804 1092.77 912.804 1094.09 907.49C1095.41 902.175 1095.66 896.652 1094.83 891.24C1092.19 867.24 1077.43 855.24 1051.15 858.6L1026.07 861.24Z" fill="#001B62"/>
<path d="M167.225 804.84L163.865 774C167.552 776.854 171.584 779.233 175.865 781.08C180.345 783.216 185.056 784.826 189.905 785.88C194.616 787.145 199.439 787.949 204.305 788.28C208.698 788.642 213.113 788.642 217.505 788.28C228.554 788.029 239.133 783.763 247.265 776.28C250.368 772.656 252.616 768.379 253.842 763.767C255.067 759.156 255.239 754.327 254.345 749.64C253.936 744.187 252.206 738.916 249.305 734.28C246.375 729.966 242.722 726.19 238.505 723.12C233.684 719.667 228.587 716.617 223.265 714C217.505 711.36 211.265 708.36 204.305 705.36C197.345 702.36 190.505 699 184.505 695.52C178.471 692.283 172.901 688.246 167.945 683.52C163.293 678.989 159.258 673.865 155.945 668.28C152.712 661.693 150.68 654.582 149.945 647.28C148.639 638.19 149.587 628.918 152.705 620.28C155.419 612.654 159.854 605.755 165.665 600.12C171.494 594.547 178.284 590.075 185.705 586.92C206.719 578.421 230.007 577.363 251.705 583.92L254.945 612.96C241.518 604.99 225.737 601.936 210.305 604.32C205.424 604.999 200.607 606.083 195.905 607.56C191.462 609.129 187.38 611.578 183.905 614.76C180.245 618.009 177.478 622.14 175.865 626.76C173.832 631.819 173.21 637.335 174.065 642.72C174.505 647.798 176.062 652.715 178.625 657.12C180.933 661.214 184.082 664.773 187.865 667.56C192.26 670.846 196.962 673.699 201.905 676.08C207.305 678.72 213.905 681.36 220.865 684.36C227.825 687.36 234.905 691.08 241.625 694.68C248.004 697.893 253.934 701.928 259.265 706.68C264.068 711.571 268.113 717.153 271.265 723.24C274.884 729.842 277.129 737.108 277.865 744.6C279.177 754.062 278.357 763.697 275.465 772.8C272.954 780.495 268.537 787.43 262.625 792.96C256.68 798.262 249.748 802.34 242.225 804.96C234.075 808.165 225.508 810.186 216.785 810.96C212.793 811.312 208.778 811.312 204.785 810.96C200.345 810.96 195.785 810.96 190.985 810.12C186.453 809.479 181.964 808.557 177.545 807.36C173.96 807.302 170.434 806.441 167.225 804.84Z" fill="white"/>
<path d="M334.505 710.76L343.865 794.76L321.665 797.16L297.665 576.12L350.105 570.12C358.688 568.548 367.507 568.804 375.985 570.871C384.463 572.939 392.409 576.772 399.305 582.12C405.96 588.037 411.364 595.226 415.197 603.263C419.03 611.301 421.216 620.025 421.625 628.92C424.328 647.8 419.69 666.997 408.665 682.56C402.967 690.036 395.737 696.206 387.458 700.656C379.178 705.106 370.043 707.733 360.665 708.36L334.505 710.76ZM322.505 596.4L332.705 687L356.705 684.24C363.165 683.966 369.503 682.39 375.338 679.606C381.174 676.822 386.387 672.888 390.665 668.04C394.375 662.892 397.028 657.06 398.469 650.881C399.911 644.702 400.114 638.298 399.065 632.04C395.705 603 379.265 590.04 349.505 593.4L322.505 596.4Z" fill="white"/>
<path d="M575.225 768.24L474.065 780.24L449.465 558.6L546.425 547.8L549.065 571.2L474.665 579.6L482.705 653.04L551.465 645.24L554.225 669.24L485.465 677.04L494.105 754.44L572.825 745.68L575.225 768.24Z" fill="white"/>
<path d="M740.465 740.4C725.461 751.307 707.721 757.83 689.225 759.24C676.797 761.044 664.119 759.899 652.216 755.896C640.312 751.894 629.518 745.146 620.705 736.2C600.921 715.173 589.155 687.862 587.465 659.04C582.542 628.237 588.936 596.694 605.465 570.24C612.667 558.924 622.355 549.401 633.792 542.393C645.229 535.385 658.113 531.079 671.465 529.8C686.861 527.524 702.579 528.964 717.305 534L720.305 561.6C705.862 554.292 689.569 551.451 673.505 553.44C663.226 554.352 653.31 557.688 644.57 563.174C635.83 568.66 628.515 576.14 623.225 585C610.999 606.228 606.425 631.006 610.265 655.2C611.611 678.421 620.937 700.464 636.665 717.6C643.381 724.626 651.671 729.954 660.851 733.147C670.031 736.339 679.839 737.303 689.465 735.96C707.238 734.391 724.05 727.204 737.465 715.44L740.465 740.4Z" fill="white"/>
<path d="M796.505 519.6L799.025 541.8L780.305 543.96L800.225 720.6L818.705 718.56L821.225 740.76L761.225 747.36L758.825 725.04L777.425 723L758.105 546L739.265 548.4L736.985 526.2L796.505 519.6Z" fill="white"/>
<path d="M1000.27 720.96L976.265 723.6L949.265 663.6L868.625 672.48L856.625 736.68L831.785 739.44L879.785 510.24L902.825 507.6L1000.27 720.96ZM938.465 642L898.025 551.16C896.035 546.48 894.507 541.617 893.465 536.64C893.396 541.677 892.874 546.697 891.905 551.64L872.825 649.2L938.465 642Z" fill="white"/>
<path d="M1127.23 706.8L1028.11 717.96L1003.27 496.8L1025.35 494.4L1047.67 692.04L1124.11 683.4L1127.23 706.8Z" fill="white"/>
<path d="M167.225 804.84L163.865 774C167.552 776.854 171.584 779.233 175.865 781.08C180.345 783.216 185.056 784.826 189.905 785.88C194.616 787.145 199.439 787.949 204.305 788.28C208.698 788.642 213.113 788.642 217.505 788.28C228.554 788.029 239.133 783.763 247.265 776.28C250.368 772.656 252.616 768.379 253.842 763.767C255.067 759.156 255.239 754.327 254.345 749.64C253.936 744.187 252.206 738.916 249.305 734.28C246.375 729.966 242.722 726.19 238.505 723.12C233.684 719.667 228.587 716.617 223.265 714C217.505 711.36 211.265 708.36 204.305 705.36C197.345 702.36 190.505 699 184.505 695.52C178.471 692.283 172.901 688.246 167.945 683.52C163.293 678.989 159.258 673.865 155.945 668.28C152.712 661.693 150.68 654.582 149.945 647.28C148.639 638.19 149.587 628.918 152.705 620.28C155.419 612.654 159.854 605.755 165.665 600.12C171.494 594.547 178.284 590.075 185.705 586.92C206.719 578.421 230.007 577.363 251.705 583.92L254.945 612.96C241.518 604.99 225.737 601.936 210.305 604.32C205.424 604.999 200.607 606.083 195.905 607.56C191.462 609.129 187.38 611.578 183.905 614.76C180.245 618.009 177.478 622.14 175.865 626.76C173.832 631.819 173.21 637.335 174.065 642.72C174.505 647.798 176.062 652.715 178.625 657.12C180.933 661.214 184.082 664.773 187.865 667.56C192.26 670.846 196.962 673.699 201.905 676.08C207.305 678.72 213.905 681.36 220.865 684.36C227.825 687.36 234.905 691.08 241.625 694.68C248.004 697.893 253.934 701.928 259.265 706.68C264.068 711.571 268.113 717.153 271.265 723.24C274.884 729.842 277.129 737.108 277.865 744.6C279.177 754.062 278.357 763.697 275.465 772.8C272.954 780.495 268.537 787.43 262.625 792.96C256.68 798.262 249.748 802.34 242.225 804.96C234.075 808.165 225.508 810.186 216.785 810.96C212.793 811.312 208.778 811.312 204.785 810.96C200.345 810.96 195.785 810.96 190.985 810.12C186.453 809.479 181.964 808.557 177.545 807.36C173.96 807.302 170.434 806.441 167.225 804.84Z" fill="#001B62"/>
<path d="M334.505 710.76L343.865 794.76L321.665 797.16L297.665 576.12L350.105 570.12C358.688 568.548 367.507 568.804 375.985 570.871C384.463 572.939 392.409 576.772 399.305 582.12C405.96 588.037 411.364 595.226 415.197 603.263C419.03 611.301 421.216 620.025 421.625 628.92C424.328 647.8 419.69 666.997 408.665 682.56C402.967 690.036 395.737 696.206 387.458 700.656C379.178 705.106 370.043 707.733 360.665 708.36L334.505 710.76ZM322.505 596.4L332.705 687L356.705 684.24C363.165 683.966 369.503 682.39 375.338 679.606C381.174 676.822 386.387 672.888 390.665 668.04C394.375 662.892 397.028 657.06 398.469 650.881C399.911 644.702 400.114 638.298 399.065 632.04C395.705 603 379.265 590.04 349.505 593.4L322.505 596.4Z" fill="#001B62"/>
<path d="M575.225 768.24L474.065 780.24L449.465 558.6L546.425 547.8L549.065 571.2L474.665 579.6L482.705 653.04L551.465 645.24L554.225 669.24L485.465 677.04L494.105 754.44L572.825 745.68L575.225 768.24Z" fill="#001B62"/>
<path d="M740.465 740.4C725.461 751.307 707.721 757.83 689.225 759.24C676.797 761.044 664.119 759.899 652.216 755.896C640.312 751.894 629.518 745.146 620.705 736.2C600.921 715.173 589.155 687.862 587.465 659.04C582.542 628.237 588.936 596.694 605.465 570.24C612.667 558.924 622.355 549.401 633.792 542.393C645.229 535.385 658.113 531.079 671.465 529.8C686.861 527.524 702.579 528.964 717.305 534L720.305 561.6C705.862 554.292 689.569 551.451 673.505 553.44C663.226 554.352 653.31 557.688 644.57 563.174C635.83 568.66 628.515 576.14 623.225 585C610.999 606.228 606.425 631.006 610.265 655.2C611.611 678.421 620.937 700.464 636.665 717.6C643.381 724.626 651.671 729.954 660.851 733.147C670.031 736.339 679.839 737.303 689.465 735.96C707.238 734.391 724.05 727.204 737.465 715.44L740.465 740.4Z" fill="#001B62"/>
<path d="M796.505 519.6L799.025 541.8L780.305 543.96L800.225 720.6L818.705 718.56L821.225 740.76L761.225 747.36L758.825 725.04L777.425 723L758.105 546L739.265 548.4L736.985 526.2L796.505 519.6Z" fill="#001B62"/>
<path d="M1000.27 720.96L976.265 723.6L949.265 663.6L868.625 672.48L856.625 736.68L831.785 739.44L879.785 510.24L902.825 507.6L1000.27 720.96ZM938.465 642L898.025 551.16C896.035 546.48 894.507 541.617 893.465 536.64C893.396 541.677 892.874 546.697 891.905 551.64L872.825 649.2L938.465 642Z" fill="#001B62"/>
<path d="M1127.23 706.8L1028.11 717.96L1003.27 496.8L1025.35 494.4L1047.67 692.04L1124.11 683.4L1127.23 706.8Z" fill="#001B62"/>
<path d="M167.225 804.84L163.865 774C167.552 776.854 171.584 779.233 175.865 781.08C180.345 783.216 185.056 784.826 189.905 785.88C194.616 787.145 199.439 787.949 204.305 788.28C208.698 788.642 213.113 788.642 217.505 788.28C228.554 788.029 239.133 783.763 247.265 776.28C250.368 772.656 252.616 768.379 253.842 763.767C255.067 759.156 255.239 754.327 254.345 749.64C253.936 744.187 252.206 738.916 249.305 734.28C246.375 729.966 242.722 726.19 238.505 723.12C233.684 719.667 228.587 716.617 223.265 714C217.505 711.36 211.265 708.36 204.305 705.36C197.345 702.36 190.505 699 184.505 695.52C178.471 692.283 172.901 688.246 167.945 683.52C163.293 678.989 159.258 673.865 155.945 668.28C152.712 661.693 150.68 654.582 149.945 647.28C148.639 638.19 149.587 628.918 152.705 620.28C155.419 612.654 159.854 605.755 165.665 600.12C171.494 594.547 178.284 590.075 185.705 586.92C206.719 578.421 230.007 577.363 251.705 583.92L254.945 612.96C241.518 604.99 225.737 601.936 210.305 604.32C205.424 604.999 200.607 606.083 195.905 607.56C191.462 609.129 187.38 611.578 183.905 614.76C180.245 618.009 177.478 622.14 175.865 626.76C173.832 631.819 173.21 637.335 174.065 642.72C174.505 647.798 176.062 652.715 178.625 657.12C180.933 661.214 184.082 664.773 187.865 667.56C192.26 670.846 196.962 673.699 201.905 676.08C207.305 678.72 213.905 681.36 220.865 684.36C227.825 687.36 234.905 691.08 241.625 694.68C248.004 697.893 253.934 701.928 259.265 706.68C264.068 711.571 268.113 717.153 271.265 723.24C274.884 729.842 277.129 737.108 277.865 744.6C279.177 754.062 278.357 763.697 275.465 772.8C272.954 780.495 268.537 787.43 262.625 792.96C256.68 798.262 249.748 802.34 242.225 804.96C234.075 808.165 225.508 810.186 216.785 810.96C212.793 811.312 208.778 811.312 204.785 810.96C200.345 810.96 195.785 810.96 190.985 810.12C186.453 809.479 181.964 808.557 177.545 807.36C173.96 807.302 170.434 806.441 167.225 804.84Z" fill="#001B62"/>
<path d="M334.505 710.76L343.865 794.76L321.665 797.16L297.665 576.12L350.105 570.12C358.688 568.548 367.507 568.804 375.985 570.871C384.463 572.939 392.409 576.772 399.305 582.12C405.96 588.037 411.364 595.226 415.197 603.263C419.03 611.301 421.216 620.025 421.625 628.92C424.328 647.8 419.69 666.997 408.665 682.56C402.967 690.036 395.737 696.206 387.458 700.656C379.178 705.106 370.043 707.733 360.665 708.36L334.505 710.76ZM322.505 596.4L332.705 687L356.705 684.24C363.165 683.966 369.503 682.39 375.338 679.606C381.174 676.822 386.387 672.888 390.665 668.04C394.375 662.892 397.028 657.06 398.469 650.881C399.911 644.702 400.114 638.298 399.065 632.04C395.705 603 379.265 590.04 349.505 593.4L322.505 596.4Z" fill="#001B62"/>
<path d="M575.225 768.24L474.065 780.24L449.465 558.6L546.425 547.8L549.065 571.2L474.665 579.6L482.705 653.04L551.465 645.24L554.225 669.24L485.465 677.04L494.105 754.44L572.825 745.68L575.225 768.24Z" fill="#001B62"/>
<path d="M740.465 740.4C725.461 751.307 707.721 757.83 689.225 759.24C676.797 761.044 664.119 759.899 652.216 755.896C640.312 751.894 629.518 745.146 620.705 736.2C600.921 715.173 589.155 687.862 587.465 659.04C582.542 628.237 588.936 596.694 605.465 570.24C612.667 558.924 622.355 549.401 633.792 542.393C645.229 535.385 658.113 531.079 671.465 529.8C686.861 527.524 702.579 528.964 717.305 534L720.305 561.6C705.862 554.292 689.569 551.451 673.505 553.44C663.226 554.352 653.31 557.688 644.57 563.174C635.83 568.66 628.515 576.14 623.225 585C610.999 606.228 606.425 631.006 610.265 655.2C611.611 678.421 620.937 700.464 636.665 717.6C643.381 724.626 651.671 729.954 660.851 733.147C670.031 736.339 679.839 737.303 689.465 735.96C707.238 734.391 724.05 727.204 737.465 715.44L740.465 740.4Z" fill="#001B62"/>
<path d="M796.505 519.6L799.025 541.8L780.305 543.96L800.225 720.6L818.705 718.56L821.225 740.76L761.225 747.36L758.825 725.04L777.425 723L758.105 546L739.265 548.4L736.985 526.2L796.505 519.6Z" fill="#001B62"/>
<path d="M1000.27 720.96L976.265 723.6L949.265 663.6L868.625 672.48L856.625 736.68L831.785 739.44L879.785 510.24L902.825 507.6L1000.27 720.96ZM938.465 642L898.025 551.16C896.035 546.48 894.507 541.617 893.465 536.64C893.396 541.677 892.874 546.697 891.905 551.64L872.825 649.2L938.465 642Z" fill="#001B62"/>
<path d="M1127.23 706.8L1028.11 717.96L1003.27 496.8L1025.35 494.4L1047.67 692.04L1124.11 683.4L1127.23 706.8Z" fill="#001B62"/>
<path d="M167.225 804.84L163.865 774C167.552 776.854 171.584 779.233 175.865 781.08C180.345 783.216 185.056 784.826 189.905 785.88C194.616 787.145 199.439 787.949 204.305 788.28C208.698 788.642 213.113 788.642 217.505 788.28C228.554 788.029 239.133 783.763 247.265 776.28C250.368 772.656 252.616 768.379 253.842 763.767C255.067 759.156 255.239 754.327 254.345 749.64C253.936 744.187 252.206 738.916 249.305 734.28C246.375 729.966 242.722 726.19 238.505 723.12C233.684 719.667 228.587 716.617 223.265 714C217.505 711.36 211.265 708.36 204.305 705.36C197.345 702.36 190.505 699 184.505 695.52C178.471 692.283 172.901 688.246 167.945 683.52C163.293 678.989 159.258 673.865 155.945 668.28C152.712 661.693 150.68 654.582 149.945 647.28C148.639 638.19 149.587 628.918 152.705 620.28C155.419 612.654 159.854 605.755 165.665 600.12C171.494 594.547 178.284 590.075 185.705 586.92C206.719 578.421 230.007 577.363 251.705 583.92L254.945 612.96C241.518 604.99 225.737 601.936 210.305 604.32C205.424 604.999 200.607 606.083 195.905 607.56C191.462 609.129 187.38 611.578 183.905 614.76C180.245 618.009 177.478 622.14 175.865 626.76C173.832 631.819 173.21 637.335 174.065 642.72C174.505 647.798 176.062 652.715 178.625 657.12C180.933 661.214 184.082 664.773 187.865 667.56C192.26 670.846 196.962 673.699 201.905 676.08C207.305 678.72 213.905 681.36 220.865 684.36C227.825 687.36 234.905 691.08 241.625 694.68C248.004 697.893 253.934 701.928 259.265 706.68C264.068 711.571 268.113 717.153 271.265 723.24C274.884 729.842 277.129 737.108 277.865 744.6C279.177 754.062 278.357 763.697 275.465 772.8C272.954 780.495 268.537 787.43 262.625 792.96C256.68 798.262 249.748 802.34 242.225 804.96C234.075 808.165 225.508 810.186 216.785 810.96C212.793 811.312 208.778 811.312 204.785 810.96C200.345 810.96 195.785 810.96 190.985 810.12C186.453 809.479 181.964 808.557 177.545 807.36C173.96 807.302 170.434 806.441 167.225 804.84Z" fill="#001B62"/>
<path d="M334.505 710.76L343.865 794.76L321.665 797.16L297.665 576.12L350.105 570.12C358.688 568.548 367.507 568.804 375.985 570.871C384.463 572.939 392.409 576.772 399.305 582.12C405.96 588.037 411.364 595.226 415.197 603.263C419.03 611.301 421.216 620.025 421.625 628.92C424.328 647.8 419.69 666.997 408.665 682.56C402.967 690.036 395.737 696.206 387.458 700.656C379.178 705.106 370.043 707.733 360.665 708.36L334.505 710.76ZM322.505 596.4L332.705 687L356.705 684.24C363.165 683.966 369.503 682.39 375.338 679.606C381.174 676.822 386.387 672.888 390.665 668.04C394.375 662.892 397.028 657.06 398.469 650.881C399.911 644.702 400.114 638.298 399.065 632.04C395.705 603 379.265 590.04 349.505 593.4L322.505 596.4Z" fill="#001B62"/>
<path d="M575.225 768.24L474.065 780.24L449.465 558.6L546.425 547.8L549.065 571.2L474.665 579.6L482.705 653.04L551.465 645.24L554.225 669.24L485.465 677.04L494.105 754.44L572.825 745.68L575.225 768.24Z" fill="#001B62"/>
<path d="M740.465 740.4C725.461 751.307 707.721 757.83 689.225 759.24C676.797 761.044 664.119 759.899 652.216 755.896C640.312 751.894 629.518 745.146 620.705 736.2C600.921 715.173 589.155 687.862 587.465 659.04C582.542 628.237 588.936 596.694 605.465 570.24C612.667 558.924 622.355 549.401 633.792 542.393C645.229 535.385 658.113 531.079 671.465 529.8C686.861 527.524 702.579 528.964 717.305 534L720.305 561.6C705.862 554.292 689.569 551.451 673.505 553.44C663.226 554.352 653.31 557.688 644.57 563.174C635.83 568.66 628.515 576.14 623.225 585C610.999 606.228 606.425 631.006 610.265 655.2C611.611 678.421 620.937 700.464 636.665 717.6C643.381 724.626 651.671 729.954 660.851 733.147C670.031 736.339 679.839 737.303 689.465 735.96C707.238 734.391 724.05 727.204 737.465 715.44L740.465 740.4Z" fill="#001B62"/>
<path d="M796.505 519.6L799.025 541.8L780.305 543.96L800.225 720.6L818.705 718.56L821.225 740.76L761.225 747.36L758.825 725.04L777.425 723L758.105 546L739.265 548.4L736.985 526.2L796.505 519.6Z" fill="#001B62"/>
<path d="M1000.27 720.96L976.265 723.6L949.265 663.6L868.625 672.48L856.625 736.68L831.785 739.44L879.785 510.24L902.825 507.6L1000.27 720.96ZM938.465 642L898.025 551.16C896.035 546.48 894.507 541.617 893.465 536.64C893.396 541.677 892.874 546.697 891.905 551.64L872.825 649.2L938.465 642Z" fill="#001B62"/>
<path d="M1127.23 706.8L1028.11 717.96L1003.27 496.8L1025.35 494.4L1047.67 692.04L1124.11 683.4L1127.23 706.8Z" fill="#001B62"/>
<path d="M963.905 1165.8L1021.26 1226.4L791.225 1500L758.825 1249.2L963.905 1165.8Z" fill="#FABD00"/>
</svg>
